REM MD5 6b54437325b528c4f799d32ddc44b95c
FILE "T kara Hajimaru Monogatari (Japan).bin" BINARY
  TRACK 01 MODE2/2352
    INDEX 01 00:00:00
  TRACK 02 AUDIO
    INDEX 00 11:10:47
    INDEX 01 11:12:47
  TRACK 03 AUDIO
    INDEX 00 13:43:63
    INDEX 01 13:45:63
REM LEADOUT 18:51:71
